<svg width="23" height="23" viewBox="0 0 23 23" fill="none" xmlns="http://www.w3.org/2000/svg">
<circle cx="11.5" cy="11.5" r="11.5" fill="#00C708"/>
<path d="M14.5696 9.4375L14.2585 10.6222H8.54403L8.85085 9.4375H14.5696ZM11.5994 16L8.68466 12.5312L8.68892 11.4659H10.1293C10.4503 11.4659 10.7188 11.4062 10.9347 11.2869C11.1506 11.1676 11.3125 11.0057 11.4205 10.8011C11.5284 10.5966 11.5838 10.3636 11.5866 10.1023C11.5838 9.71023 11.4688 9.39062 11.2415 9.14347C11.017 8.89347 10.6463 8.76847 10.1293 8.76847H8.54403L8.89347 7.27273H10.1293C10.8537 7.27273 11.4574 7.3821 11.9403 7.60085C12.4261 7.81676 12.7898 8.125 13.0312 8.52557C13.2756 8.92614 13.3991 9.40341 13.402 9.95739C13.3991 10.4489 13.3168 10.8778 13.1548 11.2443C12.9957 11.6108 12.7443 11.9162 12.4006 12.1605C12.0597 12.4048 11.6151 12.5866 11.0668 12.706L10.9986 12.7315L13.6065 15.9233V16H11.5994ZM14.5781 7.27273L14.2585 8.47443H9.55398L9.87358 7.27273H14.5781Z" fill="white"/>
<circle cx="18.5" cy="18.5" r="4.25" fill="white" stroke="#00C708" stroke-width="0.5"/>
<g clip-path="url(#clip0_17_1150)">
<path d="M20.4286 18.0781H18.9821V16.8125C18.9821 16.6572 18.8382 16.5312 18.6607 16.5312H18.3393C18.1618 16.5312 18.0179 16.6572 18.0179 16.8125V18.0781H16.5714C16.3939 18.0781 16.25 18.2041 16.25 18.3594V18.6406C16.25 18.7959 16.3939 18.9219 16.5714 18.9219H18.0179V20.1875C18.0179 20.3428 18.1618 20.4688 18.3393 20.4688H18.6607C18.8382 20.4688 18.9821 20.3428 18.9821 20.1875V18.9219H20.4286C20.6061 18.9219 20.75 18.7959 20.75 18.6406V18.3594C20.75 18.2041 20.6061 18.0781 20.4286 18.0781Z" fill="#00C708"/>
</g>
<defs>
<clipPath id="clip0_17_1150">
<rect width="4.5" height="4.5" fill="white" transform="translate(16.25 16.25)"/>
</clipPath>
</defs>
</svg>
