<svg width="8" height="8" viewBox="0 0 8 8" fill="none" xmlns="http://www.w3.org/2000/svg">
<g clip-path="url(#clip0_208_34)">
<path d="M4.00016 3.55105C4.58436 3.55105 5.05794 3.08343 5.05794 2.5066C5.05794 1.92977 4.58436 1.46216 4.00016 1.46216C3.41597 1.46216 2.94238 1.92977 2.94238 2.5066C2.94238 3.08343 3.41597 3.55105 4.00016 3.55105Z" fill="#A3A7AB"/>
<path d="M2.39545 2.6111H2.50212V2.51555C2.50277 2.23768 2.58116 1.96554 2.72843 1.72991C2.8757 1.49427 3.08597 1.30456 3.33545 1.18221C3.26159 1.01212 3.14304 0.865198 2.99239 0.757065C2.84174 0.648932 2.66462 0.583622 2.47983 0.56807C2.29504 0.552519 2.10949 0.587307 1.94289 0.668739C1.77628 0.750172 1.63485 0.875209 1.5336 1.03057C1.43235 1.18593 1.37507 1.36581 1.36784 1.55111C1.36062 1.73641 1.40371 1.92021 1.49256 2.08298C1.5814 2.24576 1.71267 2.38143 1.87243 2.47559C2.03218 2.56975 2.21446 2.61888 2.3999 2.61777L2.39545 2.6111ZM5.50212 2.50666V2.60221H5.60878C5.79175 2.60038 5.97084 2.54925 6.1272 2.45421C6.28356 2.35917 6.41141 2.22374 6.49729 2.06217C6.58317 1.9006 6.6239 1.71886 6.6152 1.53609C6.6065 1.35332 6.54869 1.17628 6.44785 1.02359C6.34701 0.87091 6.20688 0.748234 6.04219 0.668479C5.87751 0.588724 5.69438 0.554839 5.51206 0.570392C5.32975 0.585944 5.155 0.650358 5.00621 0.756854C4.85741 0.86335 4.74008 1.00799 4.66656 1.17555C4.91612 1.29741 5.12663 1.48665 5.27428 1.72187C5.42193 1.9571 5.50085 2.22893 5.50212 2.50666ZM4.95323 3.65555C5.39507 3.743 5.82228 3.89264 6.22212 4.09999C6.27845 4.13093 6.32947 4.1707 6.37323 4.21777H7.55545V3.45777C7.55567 3.42862 7.54792 3.39996 7.53303 3.3749C7.51815 3.34983 7.4967 3.32931 7.47101 3.31555C6.89504 3.01428 6.25433 2.85792 5.60434 2.85999H5.45767C5.38066 3.17304 5.20354 3.45238 4.95323 3.65555ZM1.45101 4.64888C1.4506 4.53696 1.48083 4.42707 1.53841 4.3311C1.59599 4.23513 1.67873 4.15674 1.77767 4.10443C2.17751 3.89708 2.60473 3.74744 3.04656 3.65999C2.79747 3.45855 2.62046 3.18173 2.54212 2.8711H2.39545C1.74546 2.86903 1.10475 3.02539 0.528785 3.32666C0.503089 3.34042 0.481642 3.36094 0.466759 3.38601C0.451877 3.41108 0.444125 3.43973 0.44434 3.46888V4.88888H1.45101V4.64888ZM4.76878 5.9311H6.09323V6.24221H4.76878V5.9311Z" fill="#A3A7AB"/>
<path d="M7.29107 4.72448H5.7644V4.50226C5.7644 4.44332 5.74099 4.3868 5.69931 4.34512C5.65764 4.30345 5.60112 4.28004 5.54218 4.28004C5.48324 4.28004 5.42672 4.30345 5.38504 4.34512C5.34337 4.3868 5.31996 4.44332 5.31996 4.50226V4.72448H4.88885V4.09559C4.59647 4.0342 4.2987 4.00219 3.99996 4.00004C3.29857 3.99712 2.6072 4.16652 1.98662 4.49337C1.95898 4.50771 1.93584 4.52941 1.91976 4.55608C1.90368 4.58275 1.89529 4.61334 1.89551 4.64448V5.89115H3.47551V7.24448C3.47551 7.30342 3.49892 7.35994 3.5406 7.40162C3.58227 7.44329 3.6388 7.4667 3.69773 7.4667H7.29107C7.35 7.4667 7.40653 7.44329 7.4482 7.40162C7.48988 7.35994 7.51329 7.30342 7.51329 7.24448V4.9467C7.51329 4.88777 7.48988 4.83124 7.4482 4.78957C7.40653 4.74789 7.35 4.72448 7.29107 4.72448ZM7.06884 7.0267H3.91996V5.16893H5.31996V5.37115C5.31996 5.43009 5.34337 5.48661 5.38504 5.52828C5.42672 5.56996 5.48324 5.59337 5.54218 5.59337C5.60112 5.59337 5.65764 5.56996 5.69931 5.52828C5.74099 5.48661 5.7644 5.43009 5.7644 5.37115V5.16893H7.06884V7.0267Z" fill="#A3A7AB"/>
</g>
<defs>
<clipPath id="clip0_208_34">
<rect width="8" height="8" fill="white"/>
</clipPath>
</defs>
</svg>
