<svg width="24" height="24" viewBox="0 0 24 24" fill="none" xmlns="http://www.w3.org/2000/svg">
<path d="M12 10.6534C13.7526 10.6534 15.1733 9.25054 15.1733 7.52005C15.1733 5.78956 13.7526 4.38672 12 4.38672C10.2474 4.38672 8.82666 5.78956 8.82666 7.52005C8.82666 9.25054 10.2474 10.6534 12 10.6534Z" fill="#A3A7AB"/>
<path d="M7.18666 7.8333H7.50666V7.54664C7.5086 6.71304 7.74378 5.89661 8.18559 5.18972C8.6274 4.48282 9.25821 3.91367 10.0067 3.54664C9.78508 3.03635 9.42943 2.59559 8.97748 2.2712C8.52553 1.9468 7.99416 1.75087 7.43979 1.70421C6.88543 1.65756 6.32878 1.76192 5.82897 2.00622C5.32916 2.25052 4.90485 2.62563 4.6011 3.09171C4.29735 3.55779 4.12551 4.09744 4.10383 4.65334C4.08216 5.20924 4.21145 5.76063 4.47797 6.24895C4.7445 6.73727 5.13831 7.14429 5.61758 7.42677C6.09685 7.70925 6.64368 7.85665 7.19999 7.8533L7.18666 7.8333ZM16.5067 7.51997V7.80664H16.8267C17.3756 7.80113 17.9128 7.64775 18.3819 7.36263C18.851 7.07752 19.2345 6.67122 19.4922 6.18651C19.7498 5.70179 19.872 5.15658 19.8459 4.60827C19.8198 4.05996 19.6464 3.52883 19.3438 3.07078C19.0413 2.61273 18.6209 2.2447 18.1269 2.00544C17.6328 1.76617 17.0834 1.66452 16.5365 1.71117C15.9896 1.75783 15.4653 1.95107 15.0189 2.27056C14.5725 2.59005 14.2206 3.02397 14 3.52664C14.7487 3.89223 15.3802 4.45995 15.8231 5.16562C16.2661 5.8713 16.5029 6.6868 16.5067 7.51997ZM14.86 10.9666C16.1855 11.229 17.4671 11.6779 18.6667 12.3C18.8357 12.3928 18.9887 12.5121 19.12 12.6533H22.6667V10.3733C22.6673 10.2859 22.6441 10.1999 22.5994 10.1247C22.5548 10.0495 22.4904 9.98793 22.4133 9.94664C20.6854 9.04285 18.7633 8.57376 16.8133 8.57997H16.3733C16.1423 9.51912 15.6109 10.3571 14.86 10.9666ZM4.35333 13.9466C4.35211 13.6109 4.44278 13.2812 4.61553 12.9933C4.78827 12.7054 5.0365 12.4702 5.33333 12.3133C6.53285 11.6912 7.81448 11.2423 9.13999 10.98C8.3927 10.3757 7.86167 9.54519 7.62666 8.61331H7.18666C5.23668 8.6071 3.31456 9.07618 1.58666 9.97997C1.50957 10.0213 1.44523 10.0828 1.40058 10.158C1.35594 10.2332 1.33268 10.3192 1.33333 10.4066V14.6666H4.35333V13.9466ZM14.3067 17.7933H18.28V18.7266H14.3067V17.7933Z" fill="#A3A7AB"/>
<path d="M21.8733 14.1732H17.2933V13.5065C17.2933 13.3297 17.2231 13.1602 17.0981 13.0351C16.973 12.9101 16.8035 12.8399 16.6267 12.8399C16.4498 12.8399 16.2803 12.9101 16.1553 13.0351C16.0302 13.1602 15.96 13.3297 15.96 13.5065V14.1732H14.6667V12.2865C13.7895 12.1023 12.8962 12.0063 12 11.9999C9.89583 11.9911 7.82174 12.4993 5.95999 13.4799C5.87707 13.5229 5.80765 13.588 5.75941 13.668C5.71118 13.748 5.686 13.8398 5.68666 13.9332V17.6732H10.4267V21.7332C10.4267 21.91 10.4969 22.0796 10.6219 22.2046C10.7469 22.3296 10.9165 22.3999 11.0933 22.3999H21.8733C22.0501 22.3999 22.2197 22.3296 22.3447 22.2046C22.4698 22.0796 22.54 21.91 22.54 21.7332V14.8399C22.54 14.6631 22.4698 14.4935 22.3447 14.3685C22.2197 14.2434 22.0501 14.1732 21.8733 14.1732ZM21.2067 21.0799H11.76V15.5065H15.96V16.1132C15.96 16.29 16.0302 16.4596 16.1553 16.5846C16.2803 16.7096 16.4498 16.7799 16.6267 16.7799C16.8035 16.7799 16.973 16.7096 17.0981 16.5846C17.2231 16.4596 17.2933 16.29 17.2933 16.1132V15.5065H21.2067V21.0799Z" fill="#A3A7AB"/>
</svg>
