<svg width="24" height="24" viewBox="0 0 24 24" fill="none" xmlns="http://www.w3.org/2000/svg">
<path d="M4.51202 20.412H19.488C20.8568 18.7074 21.6019 16.5862 21.6 14.4C21.6 9.10805 17.304 4.80005 12 4.80005C6.69602 4.80005 2.40002 9.10805 2.40002 14.4C2.40002 16.68 3.19202 18.7561 4.51202 20.412ZM10.8 7.20005C10.8 6.54005 11.34 6.00005 12 6.00005C12.66 6.00005 13.2 6.54005 13.2 7.20005C13.2 7.87205 12.66 8.40005 12 8.40005C11.34 8.40005 10.8 7.87205 10.8 7.20005ZM4.80002 9.60005C4.80002 8.94005 5.34002 8.40005 6.00002 8.40005C6.66002 8.40005 7.20002 8.94005 7.20002 9.60005C7.20002 10.272 6.66002 10.8 6.00002 10.8C5.34002 10.8 4.80002 10.272 4.80002 9.60005ZM10.224 13.68C11.232 12.684 18.036 9.48005 18.036 9.48005C18.036 9.48005 14.844 16.296 13.848 17.292C12.84 18.3 11.232 18.3 10.224 17.292C9.74552 16.8128 9.47675 16.1633 9.47675 15.486C9.47675 14.8088 9.74552 14.1593 10.224 13.68ZM3.60002 15.6C3.60002 14.94 4.14002 14.4 4.80002 14.4C5.46002 14.4 6.00002 14.94 6.00002 15.6C6.00002 16.272 5.46002 16.8 4.80002 16.8C4.14002 16.8 3.60002 16.272 3.60002 15.6ZM10.8 15.6C10.8 14.94 11.34 14.4 12 14.4C12.66 14.4 13.2 14.94 13.2 15.6C13.2 16.272 12.66 16.8 12 16.8C11.34 16.8 10.8 16.272 10.8 15.6ZM18 15.6C18 14.94 18.54 14.4 19.2 14.4C19.86 14.4 20.4 14.94 20.4 15.6C20.4 16.272 19.86 16.8 19.2 16.8C18.54 16.8 18 16.272 18 15.6Z" fill="#A3A7AB"/>
</svg>
